<svg version="1.2" xmlns="http://www.w3.org/2000/svg" viewBox="0 0 1225 142" width="1225" height="142">
	<style>
		.s0 { fill: #003781 } 
		.s1 { fill: #0075c9 } 
	</style>
	<filter id="f0">
		<feFlood flood-color="#ffffff" flood-opacity="1" />
		<feBlend mode="normal" in2="SourceGraphic"/>
		<feComposite in2="SourceAlpha" operator="in" />
	</filter>
	<g filter="url(#f0)">
		<path class="s0" d="m734.03 110.55l-24.79-87.03c-1.42-5.14-4.54-7.52-9.94-7.52h-35.3v8.22h2.97c3.68 0 5.68 1.44 5.68 4.26 0 1.85-0.41 3.4-1.88 7.64l-24.81 74.43h22.99l6.81-22.81h26.93l6.38 22.81zm-34.73-38.29h-19.98l10.64-34.72zm41.23 38.29h22.24v-87.31c0-4.55-2.67-7.24-7.08-7.24h-21.82v8.22h1.42c3.68 0 5.23 1.56 5.23 5.28v81.05zm37.82 0h22.26v-87.31c0-4.55-2.7-7.24-7.09-7.24h-21.82v8.22h1.39c3.7 0 5.26 1.56 5.26 5.28zm53.55-70.86h-21.53v8.06h1.27c3.68 0 5.24 1.69 5.24 5.38v57.42h22.12v-63.65c0-4.53-2.71-7.21-7.1-7.21zm7.51-15.06c0-6.34-4.69-10.18-12.75-10.18-7.93 0-12.78 3.84-12.78 10.18 0 6.41 4.85 10.21 12.78 10.21 8.06 0 12.75-3.8 12.75-10.21zm55.69 85.92h20.27v-7.63h-1c-3.82 0-5.23-1.72-5.23-6.23v-33.76c0-17.99-6.24-24.26-24.26-24.26-5.8 0-11.47 0.74-16.98 2.01-5.56 1.26-8.4 2.4-15.03 5.67l4.93 13.62c7.38-3.55 15.47-5.54 21.83-5.54 5.97 0 8.1 2.13 8.1 8.33v1.58c-9.07 1.43-11.9 2.01-17.02 3.14-2.95 0.7-5.69 1.54-8.37 2.68-8.94 3.59-13.16 10.49-13.16 21.11 0 13.47 5.8 19.97 17.85 19.97 4.39 0 8.37-0.84 11.92-2.24 3.11-1.38 4.95-2.54 9.5-6.09v0.99c-0.01 4.39 2.24 6.65 6.65 6.65zm-7.38-20.26c-3.7 3.83-8.22 6.12-12.04 6.12-3.99 0-5.39-1.96-5.39-7.27 0-5.25 1.11-7.63 5.09-9.18 2.97-1.29 6.8-2.42 12.34-3.45zm77.65 20.26h22.11v-48.18c0-11.22-0.82-14.76-4.37-18.56-2.98-3.28-7.52-4.96-13.35-4.96-8.65 0-14.74 2.68-22.93 10.34v-2.83c0-4.41-2.3-6.66-6.83-6.66h-21v8.06h1.28c3.68 0 5.26 1.69 5.26 5.38v57.41h22.1v-47.91c3.7-4.12 7.51-5.97 11.91-5.97 4.7 0 5.81 1.85 5.81 8.98v44.9zm32.02 0h55.7v-14.88h-30.9l29.49-41.37v-14.62h-46.2c-5.25 0-7.66 2.4-7.66 7.66v12.88h8.22v-1.26c0-3.26 1.7-4.82 5.22-4.82h15.9l-29.77 41.82z"/>
		<path class="s1" d="m221.51 97.92q3.5-5.32 3.5-12.97 0-6.32-2.42-10.64-2.42-4.32-6.34-7.15-3.92-2.82-8.92-4.49-5.01-1.66-10.18-2.83-5.33-1.17-10.34-2.16-5-0.99-8.92-2.41-3.93-1.41-6.34-3.58-2.42-2.17-2.42-5.65 0-2.83 1.66-4.57 1.67-1.75 4.08-2.66 2.42-0.92 5.16-1.25 2.75-0.33 4.74-0.33 6.31 0 11.23 2.33 4.91 2.33 6.23 9.15h19.79q-0.83-7.15-4.07-12.22-3.24-5.07-8.15-8.23-4.91-3.16-10.98-4.57-6.07-1.41-12.72-1.41-5.82 0-12.22 1.16-6.4 1.17-11.64 4.07-5.24 2.91-8.65 7.65-3.41 4.74-3.41 11.72 0 6.49 2.33 10.9 2.33 4.41 6.24 7.23 3.9 2.83 8.81 4.49 4.91 1.66 10.23 2.83 5.16 1.16 10.15 2.16 4.99 0.99 8.9 2.41 3.91 1.42 6.4 3.74 2.49 2.33 2.66 5.99 0.17 3.66-1.75 5.9-1.91 2.25-4.91 3.41-2.99 1.17-6.4 1.58-3.41 0.42-6.07 0.42-7.65 0-13.14-3.33-5.49-3.33-6.32-11.64h-18.96q0.17 7.65 3.08 13.22 2.91 5.58 8 9.31 5.09 3.74 12 5.57 6.92 1.83 15.09 1.83 6.66 0 13.5-1.5 6.84-1.5 12.41-4.82 5.58-3.34 9.08-8.66zm56.9 12.64h19.74q-1.38-2.19-1.92-6.58-0.55-4.38-0.55-9.19v-36.87q0-6.44-2.88-10.35-2.88-3.91-7.4-6.1-4.52-2.19-10-2.95-5.49-0.75-10.83-0.75-5.9 0-11.72 1.16-5.83 1.17-10.49 3.91-4.66 2.74-7.68 7.27-3.01 4.53-3.43 11.38h19.46q0.54-5.76 3.84-8.23 3.29-2.47 9.05-2.47 2.6 0 4.86 0.34 2.26 0.35 3.98 1.37 1.72 1.03 2.74 2.88 1.03 1.85 1.03 5 0.14 3.02-1.78 4.59-1.91 1.57-5.21 2.4-3.29 0.82-7.54 1.23-4.25 0.41-8.63 1.1-4.39 0.68-8.7 1.85-4.32 1.16-7.68 3.5-3.36 2.33-5.48 6.23-2.12 3.9-2.12 9.94 0 5.49 1.85 9.46 1.85 3.98 5.14 6.58 3.29 2.61 7.68 3.84 4.39 1.23 9.46 1.24 6.58 0 12.88-1.92 6.3-1.91 10.97-6.72 0.14 1.78 0.48 3.5 0.33 1.71 0.88 3.36zm-2.19-27.42q0 1.65-0.34 4.39-0.35 2.74-1.85 5.41-1.51 2.67-4.66 4.59-3.15 1.92-8.91 1.92-2.33 0-4.52-0.41-2.19-0.41-3.84-1.44-1.65-1.02-2.6-2.81-0.96-1.78-0.96-4.39 0-2.74 0.96-4.52 0.95-1.78 2.54-2.95 1.57-1.17 3.7-1.85 2.12-0.68 4.32-1.1 2.33-0.4 4.66-0.69 2.33-0.27 4.45-0.68 2.12-0.41 3.98-1.03 1.85-0.62 3.08-1.71c0 0 0 7.27-0.01 7.27zm74.19 27.42h19.46v-43.59q0-6.58-1.17-11.99-1.17-5.42-4.04-9.18-2.88-3.77-7.88-5.89-5.01-2.13-12.82-2.12-6.17 0-12.06 2.81-5.9 2.81-9.59 8.98h-0.41v-9.87h-18.5v70.86h19.46v-37.16q0-10.83 3.56-15.56 3.56-4.73 11.51-4.73 6.99 0 9.74 4.32 2.73 4.32 2.74 13.09zm26.91 0h19.46v-97.87h-19.46zm74.5 0h19.74q-1.37-2.19-1.92-6.58-0.55-4.38-0.55-9.19v-36.87q0-6.44-2.88-10.35-2.88-3.91-7.4-6.1-4.53-2.19-10.01-2.95-5.49-0.75-10.83-0.75-5.9 0-11.72 1.16-5.83 1.17-10.49 3.91-4.67 2.74-7.68 7.27-3.01 4.53-3.43 11.38h19.46q0.55-5.76 3.84-8.23 3.29-2.47 9.05-2.47 2.6 0 4.87 0.34 2.26 0.35 3.98 1.37 1.71 1.03 2.74 2.88 1.02 1.85 1.03 5 0.14 3.02-1.78 4.59-1.92 1.57-5.21 2.4-3.3 0.82-7.54 1.23-4.25 0.41-8.63 1.1-4.39 0.68-8.71 1.85-4.32 1.16-7.67 3.5-3.36 2.33-5.48 6.23-2.13 3.9-2.13 9.94 0 5.49 1.85 9.46 1.85 3.98 5.14 6.58 3.28 2.61 7.68 3.84 4.38 1.23 9.46 1.24 6.58 0 12.88-1.92 6.3-1.91 10.97-6.72 0.13 1.78 0.48 3.5 0.35 1.71 0.89 3.36zm-2.19-27.42q-0.01 1.65-0.34 4.39-0.35 2.74-1.85 5.41-1.51 2.67-4.66 4.59-3.15 1.92-8.91 1.92-2.33 0-4.53-0.41-2.19-0.41-3.84-1.44-1.65-1.02-2.6-2.81-0.96-1.78-0.96-4.39 0-2.74 0.96-4.52 0.95-1.78 2.54-2.95 1.57-1.17 3.7-1.85 2.12-0.69 4.32-1.1 2.33-0.41 4.66-0.69 2.33-0.27 4.45-0.68 2.13-0.41 3.98-1.03 1.85-0.62 3.09-1.71c0 0 0 7.27-0.01 7.27zm135.19 27.42v-47.43q0-6.85-1.92-11.72-1.92-4.86-5.34-7.88-3.43-3.01-8.22-4.39-4.8-1.37-10.42-1.37-7.41 0-12.82 3.56-5.42 3.57-8.57 8.22-2.88-6.59-8.43-9.18-5.55-2.61-12.27-2.6-6.99 0-12.4 3.01-5.41 3.01-9.25 8.5h-0.27v-9.59h-18.37v70.86h19.46v-41.11q0-5.21 1.51-8.43 1.5-3.22 3.63-4.93 2.13-1.71 4.39-2.33 2.27-0.62 3.63-0.62 4.66 0 7.06 1.57 2.4 1.58 3.43 4.18 1.03 2.6 1.17 5.69 0.14 3.08 0.14 6.24v39.75h19.46v-39.48q0-3.3 0.48-6.51 0.48-3.22 1.92-5.75 1.43-2.54 3.98-4.12 2.54-1.57 6.65-1.57 4.11 0 6.51 1.37 2.4 1.37 3.63 3.7 1.24 2.33 1.51 5.48 0.27 3.15 0.27 6.71v40.16h19.45z"/>
		<path fill-rule="evenodd" class="s0" d="m617.3 0h5.91v141.73h-5.91z"/>
		<path class="s0" d="m1224.36 70.88c0-40.53-30.31-70.88-70.86-70.88-40.56 0-70.87 30.35-70.87 70.88 0 40.58 30.31 70.86 70.87 70.86 40.54 0 70.86-30.29 70.86-70.86zm-11.35-0.01c0 34.46-25.07 59.52-59.52 59.52-34.45 0-59.52-25.06-59.52-59.52 0-34.47 25.07-59.53 59.52-59.53 34.45 0 59.52 25.21 59.52 59.53zm-99.11 39.69h20.37v-70.87h-12.06c-5.97 0-8.31 2.19-8.31 8.31zm29.36 0h20.49v-78.35c0-6.23-2.21-8.33-8.27-8.33h-18.3v8.73h1.09c4.18 0 4.99 0.94 4.99 5.97zm29.49 0h20.33v-62.56c0-6.11-2.36-8.31-8.32-8.31h-12.01z"/>
		<g>
			<path class="s1" d="m46.24 21.18c3.26-5.97 8.15-13.03 2.17-21.18 0 0-1.62 2.71-47.26 64.09l-0.15 0.18c-0.63 0.94-1 2.07-1 3.47v0.11c0 1.71 0.47 3.19 1.3 4.42l-0.02 0.01 17.19 27.91c1.58 2.99 2.08 8.56 2.15 13.03 0.03 2 0.02 6.63 0.02 9.36 0.01 4.89 4.16 7.75 9.47 7.81h21.1v-23.78c0.05-1.63 0.07-9.53-0.49-11.3-0.62-2.78-1.83-4.52-3.99-6.53-5.38-4.96-10.33-8.15-14.14-14.12-3.26-4.34-5.43-10.33-5.43-15.76 0-5.43 1.63-9.77 4.35-13.57 3.54-5.66 7.25-11.32 10.32-16.31l-0.01-0.02c1.45-2.41 2.91-4.96 4.42-7.82z"/>
			<path class="s1" d="m54.55 36.99c-12.08 0-21.86 9.68-21.86 21.61 0 11.93 9.78 21.61 21.86 21.61 12.07 0 21.85-9.68 21.85-21.61 0-11.93-9.79-21.61-21.85-21.61z"/>
			<path class="s1" d="m107.78 72.26c0.83-1.22 1.31-2.7 1.31-4.42v-0.11c0-1.39-0.37-2.52-0.99-3.47l-0.15-0.18c-45.65-61.37-47.27-64.08-47.27-64.08-5.98 8.14-1.09 15.21 2.17 21.18 1.52 2.86 2.97 5.41 4.44 7.82l-0.01 0.02c3.06 5 6.78 10.65 10.31 16.31 2.71 3.79 4.35 8.14 4.35 13.57 0 5.43-2.18 11.41-5.44 15.76-3.81 5.97-8.76 9.16-14.13 14.12-2.17 2.01-3.37 3.75-3.99 6.53-0.57 1.77-0.54 9.67-0.49 11.3v23.78h21.1c5.3-0.05 9.46-2.92 9.46-7.81h0.01c-0.01-2.73-0.01-7.36 0.02-9.36 0.06-4.47 0.56-10.04 2.15-13.03l17.19-27.91z"/>
		</g>
	</g>
</svg>